HIERARCHY
ROOT mixamorig11:Hips
{
	OFFSET 0.000000 97.913940 0.000000
	CHANNELS 6 Xposition Yposition Zposition Xrotation Yrotation Zrotation
	JOINT mixamorig11:Spine
	{
		OFFSET 0.000000 9.589897 -0.403700
		CHANNELS 3 Xrotation Yrotation Zrotation
		JOINT mixamorig11:Spine1
		{
			OFFSET 0.000000 11.188187 -0.470998
			CHANNELS 3 Xrotation Yrotation Zrotation
			JOINT mixamorig11:Spine2
			{
				OFFSET 0.000000 12.786491 -0.538282
				CHANNELS 3 Xrotation Yrotation Zrotation
				JOINT mixamorig11:Neck
				{
					OFFSET 0.000000 14.384857 -0.605570
					CHANNELS 3 Xrotation Yrotation Zrotation
					JOINT mixamorig11:Head
					{
						OFFSET 0.000000 7.181595 2.224900
						CHANNELS 3 Xrotation Yrotation Zrotation
						JOINT mixamorig11:HeadTop_End
						{
							OFFSET 0.000000 22.308105 6.911201
							CHANNELS 3 Xrotation Yrotation Zrotation
							End Site
							{
								OFFSET 0.000000 23.354141 0.000000
							}
						}
					}
				}
				JOINT mixamorig11:LeftShoulder
				{
					OFFSET 5.882500 12.511856 -0.620804
					CHANNELS 3 Xrotation Yrotation Zrotation
					JOINT mixamorig11:LeftArm
					{
						OFFSET 11.646852 -3.702408 -0.030513
						CHANNELS 3 Xrotation Yrotation Zrotation
						JOINT mixamorig11:LeftForeArm
						{
							OFFSET 25.786604 0.000000 0.000001
							CHANNELS 3 Xrotation Yrotation Zrotation
							JOINT mixamorig11:LeftHand
							{
								OFFSET 22.541985 0.000000 0.000000
								CHANNELS 3 Xrotation Yrotation Zrotation
								JOINT mixamorig11:LeftHandThumb1
								{
									OFFSET 2.854927 -1.122772 2.480797
									CHANNELS 3 Xrotation Yrotation Zrotation
									JOINT mixamorig11:LeftHandThumb2
									{
										OFFSET 2.444778 -1.411499 1.411493
										CHANNELS 3 Xrotation Yrotation Zrotation
										JOINT mixamorig11:LeftHandThumb3
										{
											OFFSET 2.491409 -1.438416 1.438416
											CHANNELS 3 Xrotation Yrotation Zrotation
											JOINT mixamorig11:LeftHandThumb4
											{
												OFFSET 2.062660 -1.190872 1.190876
												CHANNELS 3 Xrotation Yrotation Zrotation
												End Site
												{
													OFFSET 1.867668 -1.168579 1.495700
												}
											}
										}
									}
								}
								JOINT mixamorig11:LeftHandIndex1
								{
									OFFSET 8.723740 -0.306396 2.303487
									CHANNELS 3 Xrotation Yrotation Zrotation
									JOINT mixamorig11:LeftHandIndex2
									{
										OFFSET 3.176529 0.000000 0.000000
										CHANNELS 3 Xrotation Yrotation Zrotation
										JOINT mixamorig11:LeftHandIndex3
										{
											OFFSET 2.966606 0.000000 0.000000
											CHANNELS 3 Xrotation Yrotation Zrotation
											JOINT mixamorig11:LeftHandIndex4
											{
												OFFSET 2.535217 0.000000 0.000000
												CHANNELS 3 Xrotation Yrotation Zrotation
												End Site
												{
													OFFSET 2.535202 -0.000061 -0.009100
												}
											}
										}
									}
								}
								JOINT mixamorig11:LeftHandMiddle1
								{
									OFFSET 8.847908 0.000000 0.000000
									CHANNELS 3 Xrotation Yrotation Zrotation
									JOINT mixamorig11:LeftHandMiddle2
									{
										OFFSET 3.142609 0.000000 0.000000
										CHANNELS 3 Xrotation Yrotation Zrotation
										JOINT mixamorig11:LeftHandMiddle3
										{
											OFFSET 3.136101 0.000000 0.000000
											CHANNELS 3 Xrotation Yrotation Zrotation
											JOINT mixamorig11:LeftHandMiddle4
											{
												OFFSET 2.732903 0.000000 0.000000
												CHANNELS 3 Xrotation Yrotation Zrotation
												End Site
												{
													OFFSET 2.732910 -0.000031 -0.004200
												}
											}
										}
									}
								}
								JOINT mixamorig11:LeftHandRing1
								{
									OFFSET 8.684868 -0.025436 -1.994421
									CHANNELS 3 Xrotation Yrotation Zrotation
									JOINT mixamorig11:LeftHandRing2
									{
										OFFSET 2.853500 0.000000 0.000000
										CHANNELS 3 Xrotation Yrotation Zrotation
										JOINT mixamorig11:LeftHandRing3
										{
											OFFSET 2.630104 0.000000 0.000000
											CHANNELS 3 Xrotation Yrotation Zrotation
											JOINT mixamorig11:LeftHandRing4
											{
												OFFSET 2.352501 0.000000 0.000000
												CHANNELS 3 Xrotation Yrotation Zrotation
												End Site
												{
													OFFSET 2.352493 -0.000015 -0.000900
												}
											}
										}
									}
								}
								JOINT mixamorig11:LeftHandPinky1
								{
									OFFSET 7.884079 -0.299316 -3.993881
									CHANNELS 3 Xrotation Yrotation Zrotation
									JOINT mixamorig11:LeftHandPinky2
									{
										OFFSET 2.528603 0.000000 0.000000
										CHANNELS 3 Xrotation Yrotation Zrotation
										JOINT mixamorig11:LeftHandPinky3
										{
											OFFSET 2.056900 0.000000 0.000000
											CHANNELS 3 Xrotation Yrotation Zrotation
											JOINT mixamorig11:LeftHandPinky4
											{
												OFFSET 1.859703 0.000000 0.000000
												CHANNELS 3 Xrotation Yrotation Zrotation
												End Site
												{
													OFFSET 1.859695 0.000000 -0.000600
												}
											}
										}
									}
								}
							}
						}
					}
				}
				JOINT mixamorig11:RightShoulder
				{
					OFFSET -5.882500 12.511841 -0.590276
					CHANNELS 3 Xrotation Yrotation Zrotation
					JOINT mixamorig11:RightArm
					{
						OFFSET -11.646856 -3.702393 0.030525
						CHANNELS 3 Xrotation Yrotation Zrotation
						JOINT mixamorig11:RightForeArm
						{
							OFFSET -25.792994 0.000000 -0.000000
							CHANNELS 3 Xrotation Yrotation Zrotation
							JOINT mixamorig11:RightHand
							{
								OFFSET -22.543793 0.000000 -0.000000
								CHANNELS 3 Xrotation Yrotation Zrotation
								JOINT mixamorig11:RightHandThumb1
								{
									OFFSET -3.106415 -1.313461 2.553785
									CHANNELS 3 Xrotation Yrotation Zrotation
									JOINT mixamorig11:RightHandThumb2
									{
										OFFSET -2.621536 -1.513550 1.513545
										CHANNELS 3 Xrotation Yrotation Zrotation
										JOINT mixamorig11:RightHandThumb3
										{
											OFFSET -2.337761 -1.349701 1.349705
											CHANNELS 3 Xrotation Yrotation Zrotation
											JOINT mixamorig11:RightHandThumb4
											{
												OFFSET -1.826759 -1.054688 1.054681
												CHANNELS 3 Xrotation Yrotation Zrotation
												End Site
												{
													OFFSET -1.608208 -1.027100 1.385819
												}
											}
										}
									}
								}
								JOINT mixamorig11:RightHandIndex1
								{
									OFFSET -9.030678 -0.249451 2.240086
									CHANNELS 3 Xrotation Yrotation Zrotation
									JOINT mixamorig11:RightHandIndex2
									{
										OFFSET -3.035309 0.000000 0.000000
										CHANNELS 3 Xrotation Yrotation Zrotation
										JOINT mixamorig11:RightHandIndex3
										{
											OFFSET -2.861298 0.000000 0.000000
											CHANNELS 3 Xrotation Yrotation Zrotation
											JOINT mixamorig11:RightHandIndex4
											{
												OFFSET -2.413208 0.000000 0.000000
												CHANNELS 3 Xrotation Yrotation Zrotation
												End Site
												{
													OFFSET -2.413200 0.000000 -0.005100
												}
											}
										}
									}
								}
								JOINT mixamorig11:RightHandMiddle1
								{
									OFFSET -8.867577 0.000000 0.000000
									CHANNELS 3 Xrotation Yrotation Zrotation
									JOINT mixamorig11:RightHandMiddle2
									{
										OFFSET -3.132004 0.000000 0.000000
										CHANNELS 3 Xrotation Yrotation Zrotation
										JOINT mixamorig11:RightHandMiddle3
										{
											OFFSET -3.214699 0.000000 0.000000
											CHANNELS 3 Xrotation Yrotation Zrotation
											JOINT mixamorig11:RightHandMiddle4
											{
												OFFSET -2.609901 0.000000 0.000000
												CHANNELS 3 Xrotation Yrotation Zrotation
												End Site
												{
													OFFSET -2.609894 0.000000 -0.000200
												}
											}
										}
									}
								}
								JOINT mixamorig11:RightHandRing1
								{
									OFFSET -8.687225 0.093399 -2.120879
									CHANNELS 3 Xrotation Yrotation Zrotation
									JOINT mixamorig11:RightHandRing2
									{
										OFFSET -2.821899 0.000000 0.000000
										CHANNELS 3 Xrotation Yrotation Zrotation
										JOINT mixamorig11:RightHandRing3
										{
											OFFSET -2.653198 0.000000 0.000000
											CHANNELS 3 Xrotation Yrotation Zrotation
											JOINT mixamorig11:RightHandRing4
											{
												OFFSET -2.368797 0.000000 0.000000
												CHANNELS 3 Xrotation Yrotation Zrotation
												End Site
												{
													OFFSET -2.368805 0.000000 -0.000600
												}
											}
										}
									}
								}
								JOINT mixamorig11:RightHandPinky1
								{
									OFFSET -7.738640 -0.283188 -3.996854
									CHANNELS 3 Xrotation Yrotation Zrotation
									JOINT mixamorig11:RightHandPinky2
									{
										OFFSET -2.562599 0.000000 0.000000
										CHANNELS 3 Xrotation Yrotation Zrotation
										JOINT mixamorig11:RightHandPinky3
										{
											OFFSET -2.114204 0.000000 0.000000
											CHANNELS 3 Xrotation Yrotation Zrotation
											JOINT mixamorig11:RightHandPinky4
											{
												OFFSET -1.894402 0.000000 0.000000
												CHANNELS 3 Xrotation Yrotation Zrotation
												End Site
												{
													OFFSET -1.894394 0.000000 0.000200
												}
											}
										}
									}
								}
							}
						}
					}
				}
			}
		}
	}
	JOINT mixamorig11:LeftUpLeg
	{
		OFFSET 9.775500 -5.335800 -0.515100
		CHANNELS 3 Xrotation Yrotation Zrotation
		JOINT mixamorig11:LeftLeg
		{
			OFFSET -0.162879 -44.134300 -2.074069
			CHANNELS 3 Xrotation Yrotation Zrotation
			JOINT mixamorig11:LeftFoot
			{
				OFFSET 0.162886 -32.107239 -4.534632
				CHANNELS 3 Xrotation Yrotation Zrotation
				JOINT mixamorig11:LeftToeBase
				{
					OFFSET 1.295932 -15.879209 10.953496
					CHANNELS 3 Xrotation Yrotation Zrotation
					JOINT mixamorig11:LeftToe_End
					{
						OFFSET 0.672109 0.076157 4.944448
						CHANNELS 3 Xrotation Yrotation Zrotation
						End Site
						{
							OFFSET 0.672109 0.076157 4.944448
						}
					}
				}
			}
		}
	}
	JOINT mixamorig11:RightUpLeg
	{
		OFFSET -9.775500 -5.335800 -0.335300
		CHANNELS 3 Xrotation Yrotation Zrotation
		JOINT mixamorig11:RightLeg
		{
			OFFSET 0.093828 -44.134544 -2.322256
			CHANNELS 3 Xrotation Yrotation Zrotation
			JOINT mixamorig11:RightFoot
			{
				OFFSET -0.093820 -32.099487 -4.466276
				CHANNELS 3 Xrotation Yrotation Zrotation
				JOINT mixamorig11:RightToeBase
				{
					OFFSET -1.415545 -15.880081 11.007255
					CHANNELS 3 Xrotation Yrotation Zrotation
					JOINT mixamorig11:RightToe_End
					{
						OFFSET -0.672140 0.075555 4.958078
						CHANNELS 3 Xrotation Yrotation Zrotation
						End Site
						{
							OFFSET -0.672140 0.075555 4.958078
						}
					}
				}
			}
		}
	}
}
MOTION
Frames: 4
Frame Time: 0.033333
0.338903 75.790741 1.215075 17.264700 17.659688 2.407521 10.680206 -13.853493 7.988858 2.869504 -4.087947 0.126402 2.861627 -4.312291 0.311448 -0.686692 2.356467 -4.369681 -0.708159 2.172185 -4.541235 -0.000002 0.000000 -0.000000 2.870358 -11.957091 6.152312 -33.803675 -70.877583 -6.927786 0.000276 -94.709575 0.000160 15.904411 -20.838188 11.426071 -14.373978 -24.771122 -3.357582 9.920145 43.708870 4.996014 -9.012731 -8.993960 12.231315 -0.000001 -0.000001 -0.000002 0.614966 5.226363 -14.494942 0.212944 1.566677 -15.479609 0.212821 1.566223 -15.474965 0.000001 -0.000000 0.000000 1.835614 6.790042 -33.465226 1.023789 3.310344 -34.362446 1.141464 3.475894 -36.350414 -0.000001 -0.000001 0.000001 2.746536 7.472783 -44.480016 1.527759 3.946337 -42.313189 1.667320 4.094032 -44.303568 -0.000001 -0.000002 0.000000 3.725307 7.962791 -54.775153 2.215616 4.587683 -51.537992 2.214890 4.587124 -51.529184 0.000001 0.000002 0.000002 1.124709 1.331198 15.117063 -9.590819 -31.513199 40.008420 -0.000008 10.721321 0.000018 16.783634 19.030324 -20.612613 -6.394895 8.753169 -2.624480 8.233921 -29.439089 -1.700685 -7.568552 8.340480 -10.032329 0.000000 0.000003 0.000002 -1.782501 6.485226 11.713619 0.189243 -1.315432 16.372460 0.199573 -1.350088 16.816588 0.000000 -0.000000 -0.000000 -1.298709 1.214695 17.888072 0.309499 -1.671022 20.984593 0.372137 -1.825899 23.037316 0.000000 0.000002 0.000001 -0.118576 -2.982258 25.427659 0.399963 -1.889941 23.895429 0.468770 -2.038168 25.903629 0.000001 -0.000002 -0.000002 0.003133 -3.566939 32.442108 0.622468 -2.327946 29.936125 0.622154 -2.327394 29.928328 0.000000 0.000001 -0.000003 4.087203 13.038672 -6.370168 47.030698 11.836274 -10.097504 -21.695114 10.593238 -12.257953 -42.282395 -0.000014 -0.000006 0.000001 -0.000002 -0.000001 -81.000033 1.920153 -2.704591 50.516274 -5.295663 1.717441 8.746943 -28.958172 -8.780045 -4.481182 -0.000003 0.000000 0.000000 0.000002 0.000000 
1.875664 75.668678 3.219147 20.329915 16.187702 0.591233 11.451090 -13.169705 9.826093 2.811449 -3.985555 0.795343 2.773588 -4.182986 0.970415 -0.681608 2.365241 -4.507590 -0.703783 2.196459 -4.657136 0.000001 0.000000 0.000000 2.735329 -12.696712 4.346276 -34.108346 -64.082044 -9.625556 0.000194 -94.870972 0.000092 21.000573 -20.614962 15.573984 -13.662056 -24.113764 -2.888307 9.854708 42.794629 4.956244 -9.051016 -8.964071 12.249523 0.000003 -0.000000 -0.000003 0.554774 4.983638 -14.096288 0.225857 1.612572 -15.945264 0.225732 1.612154 -15.940767 -0.000001 -0.000001 0.000001 1.521976 6.335756 -32.899375 1.009258 3.289003 -34.109965 1.092088 3.407929 -35.528154 0.000002 -0.000001 -0.000000 2.681461 7.432156 -43.748649 1.488897 3.903319 -41.745379 1.613659 4.038440 -43.546650 -0.000001 0.000000 -0.000002 3.820835 8.175296 -53.826504 2.153113 4.537488 -50.752288 2.152411 4.536935 -50.743753 0.000001 -0.000002 0.000001 1.043147 2.631135 15.718825 -10.288652 -30.114997 39.289564 -0.000009 12.166543 0.000014 13.583258 14.557049 -20.779387 -6.148977 8.608502 -2.677354 8.227297 -29.103955 -1.757276 -7.586246 8.188796 -10.140882 -0.000002 0.000004 0.000003 -1.721468 6.411250 11.448789 0.197276 -1.342423 16.718409 0.207546 -1.376205 17.151956 0.000000 -0.000001 -0.000000 -1.282976 1.192887 17.793312 0.313037 -1.680232 21.105899 0.361786 -1.801387 22.710333 0.000001 -0.000001 -0.000000 -0.091091 -3.032637 25.292833 0.399961 -1.889957 23.895378 0.463293 -2.026818 25.748833 0.000001 -0.000002 0.000000 0.098751 -3.842825 32.204168 0.618393 -2.320841 29.835547 0.618070 -2.320300 29.827911 -0.000001 0.000000 0.000003 0.837785 11.773218 -5.333862 46.111509 10.970073 -10.021460 -12.452110 11.645039 -13.110276 -42.410489 0.163328 -2.973779 0.000000 -0.000000 -0.000000 -83.964055 1.326048 -1.784969 53.884913 -4.721476 1.712053 5.921925 -28.817869 -7.836858 -4.499146 -0.000000 0.000004 0.000000 0.000001 -0.000000 
3.345405 75.514137 5.090656 23.489603 14.595255 -1.379776 12.161173 -12.505834 11.767820 2.742635 -3.889225 1.510312 2.673457 -4.057029 1.674791 -0.669632 2.364474 -4.613853 -0.700415 2.213565 -4.739456 0.000002 0.000000 -0.000000 2.547779 -13.544111 2.497566 -34.255386 -56.841090 -11.793645 0.000021 -95.211389 -0.000129 26.361902 -19.778804 19.738649 -12.943097 -23.432905 -2.423573 9.787030 41.856997 4.915453 -9.090283 -8.933441 12.268259 -0.000001 0.000003 -0.000002 0.496356 4.733947 -13.687873 0.239498 1.659566 -16.422871 0.239370 1.659118 -16.418530 -0.000001 0.000000 0.000001 1.201035 5.850227 -32.323252 0.994450 3.267070 -33.851002 1.042489 3.337476 -34.684957 0.000000 0.000000 0.000000 2.615262 7.389624 -42.998636 1.449478 3.858800 -41.163040 1.559367 3.980696 -42.770433 -0.000000 0.000001 -0.000001 3.910813 8.397992 -52.852571 2.089740 4.485119 -49.946564 2.089075 4.484583 -49.938276 0.000001 0.000002 -0.000003 0.925092 4.088311 16.362637 -10.959854 -28.739247 38.589729 -0.000008 13.633018 0.000006 10.001641 9.913602 -21.408540 -5.896490 8.461594 -2.731213 8.220478 -28.761988 -1.814262 -7.604367 8.034049 -10.251711 0.000000 0.000006 0.000001 -1.654225 6.336474 11.177924 0.205619 -1.369948 17.071544 0.215860 -1.402804 17.494322 -0.000000 -0.000001 -0.000000 -1.267023 1.170644 17.696610 0.316677 -1.689631 21.229748 0.351353 -1.776293 22.376482 -0.000000 -0.000001 0.000001 -0.063285 -3.084221 25.155250 0.399970 -1.889980 23.895772 0.457719 -2.015242 25.590803 0.000001 0.000000 0.000001 0.194014 -4.125263 31.961245 0.614235 -2.313595 29.732869 0.613938 -2.313068 29.725444 0.000003 0.000000 0.000001 -2.529959 10.587277 -4.248977 44.291116 9.467434 -9.770737 -1.776144 12.105170 -14.329954 -44.179771 1.082342 -8.247599 0.000001 -0.000000 -0.000001 -86.860581 0.593817 -0.779360 56.644989 -4.264132 1.703837 3.490547 -28.743133 -6.889241 -4.544976 0.000013 0.000000 -0.000001 0.000001 0.000000 
4.764115 75.306175 6.858849 26.655063 12.881875 -3.400084 12.818610 -11.842731 13.779953 2.667878 -3.797336 2.249523 2.567218 -3.934124 2.403110 -0.654441 2.360089 -4.707301 -0.697758 2.231914 -4.807193 0.000002 -0.000000 0.000000 2.303190 -14.438470 0.632719 -34.581565 -49.190841 -13.602710 0.000141 -95.657776 0.000050 31.749711 -18.373467 23.795226 -12.219624 -22.730216 -1.966690 9.717170 40.898613 4.873952 -9.130440 -8.902190 12.287416 0.000002 0.000003 0.000004 0.440147 4.478008 -13.270823 0.253852 1.707444 -16.911149 0.253714 1.707037 -16.906938 -0.000000 -0.000000 -0.000000 0.878536 5.340215 -31.738574 0.979408 3.244597 -33.586274 0.992855 3.264717 -33.823134 0.000000 -0.000000 0.000001 2.548188 7.345282 -42.232094 1.409664 3.812878 -40.567837 1.504706 3.920922 -41.977079 0.000001 -0.000000 0.000000 3.994278 8.630326 -51.855968 2.025722 4.430695 -49.123045 2.025096 4.430156 -49.115064 -0.000000 -0.000000 0.000000 0.768516 5.632526 17.014058 -11.617421 -27.383248 37.920442 -0.000021 15.106611 0.000011 6.101186 5.303643 -22.569626 -5.638015 8.312853 -2.785813 8.213448 -28.414041 -1.871579 -7.622880 7.876662 -10.364560 -0.000005 0.000007 0.000004 -1.584534 6.260323 10.902024 0.214308 -1.397896 17.431070 0.224474 -1.429835 17.842882 0.000001 0.000001 -0.000000 -1.250917 1.148015 17.598158 0.320418 -1.699197 21.355828 0.340902 -1.750687 22.036661 -0.000000 -0.000001 -0.000000 -0.035283 -3.136863 25.015138 0.399936 -1.889880 23.894498 0.452084 -2.003419 25.429920 0.000001 0.000000 0.000002 0.288555 -4.413563 31.713818 0.610013 -2.306213 29.628343 0.609728 -2.305700 29.621130 -0.000002 -0.000002 -0.000002 -5.825921 9.324115 -2.707491 44.279642 9.489495 -9.714164 6.028624 11.880259 -17.959479 -41.356420 0.766355 -7.039275 -0.000002 -0.000002 0.000001 -89.695205 -0.122436 0.304054 59.013572 -4.040284 1.693976 1.368072 -28.666120 -5.845789 -4.616749 -0.000005 -0.000001 0.000000 0.000003 -0.000000 
